<svg xmlns="http://www.w3.org/2000/svg" width="16.76" height="16.761" viewBox="0 0 16.76 16.761">
  <path id="Path_48" data-name="Path 48" d="M531.667,1999.8h0a8.375,8.375,0,0,0-6.783,13.292l-1.045,3.113,3.221-1.03a8.379,8.379,0,1,0,4.61-15.376Zm4.876,11.834a2.364,2.364,0,0,1-1.645,1.182c-.437.094-1.009.168-2.935-.631a10.5,10.5,0,0,1-4.172-3.685,4.788,4.788,0,0,1-1-2.528,2.676,2.676,0,0,1,.857-2.04,1.219,1.219,0,0,1,.857-.3c.1,0,.2.005.281.009.246.01.37.025.532.414.2.487.695,1.69.753,1.813a.5.5,0,0,1,.036.454,1.444,1.444,0,0,1-.271.385c-.124.142-.241.251-.365.4-.113.133-.241.275-.1.521a7.436,7.436,0,0,0,1.36,1.69,6.177,6.177,0,0,0,1.965,1.212.531.531,0,0,0,.591-.093,10.162,10.162,0,0,0,.655-.868.468.468,0,0,1,.6-.182c.226.078,1.424.67,1.67.793s.409.182.468.286A2.087,2.087,0,0,1,536.544,2011.635Z" transform="translate(-523.285 -1999.801)" fill="#5d5d5d"/>
</svg>
