<svg id="Group_16" data-name="Group 16" xmlns="http://www.w3.org/2000/svg" width="19.603" height="17.05" viewBox="0 0 19.603 17.05">
  <g id="Group_15" data-name="Group 15" transform="translate(0)">
    <path id="Path_47" data-name="Path 47" d="M628.147,2014.8a8.364,8.364,0,0,0,5.811-1.869,4.153,4.153,0,0,1-2.361-.911,4.274,4.274,0,0,1-1.4-2.116h1.638l.024-.09a4.415,4.415,0,0,1-3.116-4.24l1.678.51c-1.716-2.007-2.123-4.066-1.073-5.811a11.557,11.557,0,0,0,8.358,4.6,5.064,5.064,0,0,1,.163-2.458,3.938,3.938,0,0,1,6.577-1.571.47.47,0,0,0,.544.135l2.156-.777c-.076.572-.5,1.171-1.612,2.186.3-.056.526-.091.746-.141.236-.054.471-.114.7-.186s.452-.161.677-.243l.09.087a15.979,15.979,0,0,1-1.43,1.539,1.541,1.541,0,0,0-.571,1.257c-.245,4.657-2.123,8.442-6.336,10.672a10.735,10.735,0,0,1-11.067-.427C628.276,2014.9,628.214,2014.849,628.147,2014.8Z" transform="translate(-628.147 -1999.657)" fill="#5d5d5d" fill-rule="evenodd"/>
  </g>
</svg>
