<svg id="Group_14" data-name="Group 14" xmlns="http://www.w3.org/2000/svg" width="8.02" height="17.218" viewBox="0 0 8.02 17.218">
  <g id="Group_13" data-name="Group 13">
    <path id="Path_46" data-name="Path 46" d="M443.318,1999.68v2.846c-.425,0-.841,0-1.257,0-.331,0-.662-.009-.992.008a1.128,1.128,0,0,0-1.181,1.121c-.012.125-.012.253-.012.379,0,.446,0,.893,0,1.376h3.293c-.153.969-.3,1.9-.448,2.851h-2.839v8.628h-2.841v-8.611H435.3v-2.86h1.733c0-.156-.006-.289,0-.42a25.807,25.807,0,0,1,.173-2.9,2.655,2.655,0,0,1,2.852-2.411C441.135,1999.66,442.214,1999.68,443.318,1999.68Z" transform="translate(-435.298 -1999.672)" fill="#5d5d5d" fill-rule="evenodd"/>
  </g>
</svg>
