<svg xmlns="http://www.w3.org/2000/svg" width="52.546" height="48.624" viewBox="0 0 52.546 48.624">
  <g id="Group_11" data-name="Group 11" transform="translate(-245.216 -556.859)">
    <g id="Group_10" data-name="Group 10" transform="translate(245.216 556.859)">
      <g id="Group_9" data-name="Group 9" transform="translate(0 0)">
        <path id="Path_30" data-name="Path 30" d="M416.576,666.848a4.754,4.754,0,0,1-6.635,0,5.356,5.356,0,0,1,0-6.483,4.706,4.706,0,0,1,6.635,0,5.356,5.356,0,0,1,0,6.483m-1.8-1.247a4.027,4.027,0,0,0,0-4,2.007,2.007,0,0,0-3.044,0,4,4,0,0,0,0,4,2,2,0,0,0,3.044,0" transform="translate(-383.884 -643.414)"/>
        <path id="Path_31" data-name="Path 31" d="M483.991,660.161a2.853,2.853,0,0,1,.848,2.324V668.3h-2.312v-5.249a2.4,2.4,0,0,0-.181-1.045,1.27,1.27,0,0,0-1.258-.665,1.557,1.557,0,0,0-1.563.974,3.358,3.358,0,0,0-.22,1.314V668.3h-2.257v-8.614h2.186v1.258a3.794,3.794,0,0,1,.819-.958,2.842,2.842,0,0,1,1.758-.523,3.3,3.3,0,0,1,2.179.7" transform="translate(-441.678 -643.807)"/>
        <path id="Path_32" data-name="Path 32" d="M540.183,665.323a1.51,1.51,0,0,0,.31.855,2.105,2.105,0,0,0,1.56.451,2.386,2.386,0,0,0,1.062-.2.663.663,0,0,0,.076-1.172,12.88,12.88,0,0,0-2.36-.681,4.9,4.9,0,0,1-2.072-.911,1.974,1.974,0,0,1-.6-1.552,2.69,2.69,0,0,1,.94-2.055,3.784,3.784,0,0,1,2.647-.859,4.858,4.858,0,0,1,2.637.646,2.764,2.764,0,0,1,1.171,2.229h-2.257a1.324,1.324,0,0,0-.246-.689,1.551,1.551,0,0,0-1.27-.459,1.831,1.831,0,0,0-1.052.23.659.659,0,0,0-.314.538.587.587,0,0,0,.334.562,14.377,14.377,0,0,0,2.356.625,4.321,4.321,0,0,1,2.021.958,2.175,2.175,0,0,1,.665,1.623,2.622,2.622,0,0,1-.956,2.094,5.744,5.744,0,0,1-5.966-.047,2.793,2.793,0,0,1-.971-2.189Z" transform="translate(-493.243 -643.589)"/>
        <path id="Path_33" data-name="Path 33" d="M245.216,726.028v-1.607h1.2v-2.407h2.233v2.407h1.4v1.607h-1.4v4.56a1.026,1.026,0,0,0,.134.661,1.476,1.476,0,0,0,.824.131q.1,0,.217,0c.077,0,.153-.007.226-.011v1.686l-1.069.04a2.867,2.867,0,0,1-2.185-.555,1.65,1.65,0,0,1-.379-1.195v-5.313Z" transform="translate(-245.216 -696.817)"/>
        <path id="Path_34" data-name="Path 34" d="M289.191,718.96H286.9v-2.082h2.288Zm-2.288,1.03h2.288v8.629H286.9Z" transform="translate(-280.543 -692.465)"/>
        <path id="Path_35" data-name="Path 35" d="M310.136,726.028v-1.607h1.2v-2.407h2.233v2.407h1.4v1.607h-1.4v4.56a1.027,1.027,0,0,0,.135.661,1.48,1.48,0,0,0,.824.131c.068,0,.141,0,.217,0s.151-.007.225-.011v1.686l-1.068.04a2.868,2.868,0,0,1-2.186-.555,1.648,1.648,0,0,1-.38-1.195v-5.313Z" transform="translate(-300.231 -696.817)"/>
        <path id="Path_36" data-name="Path 36" d="M354.138,737.272v5.2a2.744,2.744,0,0,0,.173,1.109,1.2,1.2,0,0,0,1.206.657,1.574,1.574,0,0,0,1.575-.934,3.4,3.4,0,0,0,.221-1.338v-4.7H359.6V745.9h-2.193v-1.219q-.031.04-.157.237a1.574,1.574,0,0,1-.3.349,3.135,3.135,0,0,1-1.022.649,3.487,3.487,0,0,1-1.157.174,2.579,2.579,0,0,1-2.574-1.377,5.292,5.292,0,0,1-.37-2.241v-5.2Z" transform="translate(-335.562 -709.747)"/>
        <path id="Path_37" data-name="Path 37" d="M356.855,819.036a2.01,2.01,0,0,0-.324-.871,1.367,1.367,0,0,0-1.183-.523,1.557,1.557,0,0,0-1.563,1.132,4.7,4.7,0,0,0-.222,1.6,4.314,4.314,0,0,0,.222,1.524,1.509,1.509,0,0,0,1.523,1.077,1.345,1.345,0,0,0,1.127-.428,2.121,2.121,0,0,0,.4-1.108h2.3a3.778,3.778,0,0,1-.745,1.948,3.622,3.622,0,0,1-3.146,1.48,3.68,3.68,0,0,1-3.067-1.235,4.985,4.985,0,0,1-.983-3.2,5.059,5.059,0,0,1,1.086-3.456,3.779,3.779,0,0,1,3-1.235,4.512,4.512,0,0,1,2.659.729,3.384,3.384,0,0,1,1.224,2.573Z" transform="translate(-335.033 -776.239)"/>
        <rect id="Rectangle_6" data-name="Rectangle 6" width="2.288" height="8.63" transform="translate(25.974 39.701)"/>
        <path id="Path_38" data-name="Path 38" d="M448.737,805.044a4.756,4.756,0,0,1-6.635,0,5.357,5.357,0,0,1,0-6.483,4.707,4.707,0,0,1,6.635,0,5.357,5.357,0,0,1,0,6.483m-1.8-1.247a4.036,4.036,0,0,0,0-4,2.006,2.006,0,0,0-3.044,0,4,4,0,0,0,0,4,2,2,0,0,0,3.044,0m1.187-9.859-2.407,2.368h-1.631l1.52-2.368Z" transform="translate(-411.138 -757.769)"/>
        <path id="Path_39" data-name="Path 39" d="M516.159,816.435a2.854,2.854,0,0,1,.848,2.323v5.811h-2.312V819.32a2.414,2.414,0,0,0-.181-1.045,1.271,1.271,0,0,0-1.258-.665,1.557,1.557,0,0,0-1.563.974,3.361,3.361,0,0,0-.221,1.314v4.672h-2.256v-8.614H511.4v1.259a3.815,3.815,0,0,1,.82-.958,2.838,2.838,0,0,1,1.758-.523,3.3,3.3,0,0,1,2.18.7" transform="translate(-468.939 -776.239)"/>
        <path id="Path_40" data-name="Path 40" d="M286.469,557.16a2.892,2.892,0,0,1,1.092.815,3.647,3.647,0,0,1,.587.982,3.268,3.268,0,0,1,.216,1.227,3.5,3.5,0,0,1-.419,1.635,2.346,2.346,0,0,1-1.386,1.136,2.175,2.175,0,0,1,1.143.922,3.835,3.835,0,0,1,.336,1.825v.783a5.878,5.878,0,0,0,.065,1.085.972.972,0,0,0,.451.665v.293h-2.692q-.111-.388-.159-.625a5.767,5.767,0,0,1-.1-1.006l-.016-1.085a2.209,2.209,0,0,0-.386-1.488,1.966,1.966,0,0,0-1.389-.372h-2.382v4.576h-2.383v-11.67h5.581a5.075,5.075,0,0,1,1.842.3m-5.04,1.726v3.135h2.625a2.792,2.792,0,0,0,1.172-.19,1.314,1.314,0,0,0,.692-1.315,1.473,1.473,0,0,0-.669-1.425,2.421,2.421,0,0,0-1.128-.206Z" transform="translate(-273.885 -556.859)" fill="#b10925"/>
        <path id="Path_41" data-name="Path 41" d="M355.554,575.69a3.517,3.517,0,0,1,1.492,1.276,4.241,4.241,0,0,1,.687,1.784,10.973,10.973,0,0,1,.075,1.713h-6.285a2.069,2.069,0,0,0,.9,1.821,2.3,2.3,0,0,0,1.244.325,1.753,1.753,0,0,0,1.716-.989h2.3a2.813,2.813,0,0,1-.837,1.559,4.192,4.192,0,0,1-3.247,1.259,4.7,4.7,0,0,1-3.039-1.062,4.18,4.18,0,0,1-1.317-3.454,4.67,4.67,0,0,1,1.189-3.439,4.157,4.157,0,0,1,3.086-1.2,4.9,4.9,0,0,1,2.029.4m-3.376,1.949a2.357,2.357,0,0,0-.6,1.336h3.887a1.881,1.881,0,0,0-.6-1.364,1.975,1.975,0,0,0-1.338-.464,1.79,1.79,0,0,0-1.348.492" transform="translate(-333.378 -572.475)" fill="#b10925"/>
        <path id="Path_42" data-name="Path 42" d="M415.935,578.967h2.4v2.367h-2.4Zm0,5.93h2.4v2.367h-2.4Z" transform="translate(-389.889 -575.594)" fill="#b10925"/>
        <rect id="Rectangle_7" data-name="Rectangle 7" width="2.288" height="2.399" transform="translate(25.974 36.154)"/>
      </g>
    </g>
    <path id="Path_43" data-name="Path 43" d="M342.12,646.027a2.47,2.47,0,0,0-2.473-1.982c-2.235,0-3.075,1.9-3.075,3.884,0,1.886.84,3.789,3.075,3.789a2.539,2.539,0,0,0,2.568-2.536h2.409a4.76,4.76,0,0,1-4.977,4.629c-3.488,0-5.564-2.616-5.564-5.881,0-3.36,2.076-5.976,5.564-5.976a4.6,4.6,0,0,1,4.882,4.074Z" transform="translate(-75.309 -72.112)"/>
  </g>
</svg>
