<svg xmlns="http://www.w3.org/2000/svg" xmlns:xlink="http://www.w3.org/1999/xlink" viewBox="0 0 350.35 50.03"><defs><clipPath id="b5dd162a-b1ba-400d-b5b5-eb356a3fe1e6"><rect x="242.45" y="18.09" width="26.33" height="22.37" fill="none"/></clipPath></defs><title>logo-chile-3d</title><g id="efb1e67b-8915-4b37-a199-c79c291e5a30" data-name="Layer 2"><g id="a06c1a8d-8c81-4218-94e0-744559dd6719" data-name="Ebene 1"><path d="M275,34.74l8.78,0c0,2.53.6,4.41,1.82,5.63a7.49,7.49,0,0,0,5.5,2q3.68,0,5.38-1.83a6.39,6.39,0,0,0,2-5.11,6.22,6.22,0,0,0-2.22-5.11q-2.08-1.71-6.68-1.71h-.65a2.11,2.11,0,0,0-.66.14V22.45h.92q4.06,0,6-1.57a5.65,5.65,0,0,0,2-4.71,5.66,5.66,0,0,0-1.7-4.19A6,6,0,0,0,291,10.53c-2.18,0-3.76.56-4.72,1.69a6.93,6.93,0,0,0-1.71,5.11v.26h-4.72c-1.83,0-2.92-.51-3.27-1.52a5.7,5.7,0,0,1-.13-3.21A11.76,11.76,0,0,1,280,7c2.8-2.52,6.6-3.79,11.4-3.78q6.94,0,11,3.42a10.93,10.93,0,0,1,4.17,8.92,9.45,9.45,0,0,1-1.44,5.24,10.66,10.66,0,0,1-4.2,3.66,14.13,14.13,0,0,1,5.36,4.2,11,11,0,0,1,1.83,6.42q0,6.95-4.6,10.87T291,49.7q-8,0-12-3.81t-4.05-11Z" fill="#706f6f"/><path d="M345.27,9.56Q340.17,4.06,329.82,4H312.13c.09,5.2,2.91,8,9,7.87h8.64q5.77,0,8.38,3.55,2.76,3.54,2.74,11.14,0,7.86-2.9,11Q335,41,328.58,41h-7.47l0-14.64c0-5.93-3.22-8.59-9-8.6l-.05,31.35,15.2,0a36.64,36.64,0,0,0,9.57-.9A17.92,17.92,0,0,0,343,45.06a18.21,18.21,0,0,0,5.51-7.59,30.34,30.34,0,0,0,1.85-10.87q0-11.27-5.08-17" fill="#706f6f"/><path d="M40.92,33.43Q40.26,41.27,35,45.72T20.92,50q-10.2,0-15.56-6.14Q0,38,0,26.5,0,14.74,5.49,8.85,11.12,2.72,21.7,2.71q8.63,0,13.73,4.31,4.83,4.19,5.49,11.77H35.3A4.55,4.55,0,0,1,30.85,16a13.1,13.1,0,0,0-2.22-3,11.32,11.32,0,0,0-6.93-2q-6,0-9.28,3.93T9.28,26.5q0,7.32,3.14,11.24t9,4a11.07,11.07,0,0,0,6.93-2.09,11,11,0,0,0,3.53-6.27Z" fill="#3c3c3b"/><path d="M44.63,49V8.72A4.54,4.54,0,0,1,46,5.39,4.54,4.54,0,0,1,49.33,4h4.58V20.75H72.47V4h9.42V49H72.47V29H53.91V49Z" fill="#3c3c3b"/><path d="M85.6,49V8.72A4.69,4.69,0,0,1,90.3,4h4.58V49Z" fill="#3c3c3b"/><path d="M129.09,49V8.72a4.51,4.51,0,0,1,1.38-3.33A4.51,4.51,0,0,1,133.8,4h28c0,5-2.24,7.68-7.28,7.72H138.24V21.4h17.52v3a4.68,4.68,0,0,1-4.71,4.7H138.24V40.62h23.53c0,4.94-1.63,8.37-7.12,8.36Z" fill="#3c3c3b"/><path d="M125.38,40.62H107.87V4H103.3a4.68,4.68,0,0,0-4.71,4.7V49h26.79Z" fill="#3c3c3b"/><path d="M177.3,0s-10.71-.56-11,6.2c-.38,7.82-.28,28.05-.28,38.66,0,4.18,6.68,4.05,6.68,4.05h3.08Z" fill="#3c3c3b"/><path d="M232.08,24.82s3.5.32,5,6.77c1.25,5.39,3.5,15.33,3.5,15.33s.37,2.37,7.11,2l-1.92-8.85s-3.69-9.64-3.69-10-3-6.73-3.63-6.73-6.38,1.48-6.38,1.48" fill="#575857"/><path d="M172.67,49h48.56a5.34,5.34,0,0,0,5.25-4.16L230,28.57c.69-2.63,2-3.91,3.84-3.75l1.73.2c2.1.28,2.94,1.92,3.49,3.73,0,.11,3.87,16,3.87,16A5.33,5.33,0,0,0,248.15,49h18.13a5.3,5.3,0,0,0,5.37-5.29l-.27-21.73A3.08,3.08,0,0,0,268.9,19L177.71.09c-6.21-.84-7.27,4.23-7.27,7.56V46.78A2.2,2.2,0,0,0,172.67,49" fill="#1d1e1b"/><path d="M176.45,8.51v32a3.15,3.15,0,0,0,3.16,3.14h38.16a3.15,3.15,0,0,0,3.06-2.39l4.25-17.06a3,3,0,0,0,.1-.79l-.07-6a3.14,3.14,0,0,0-2.5-3L180.26,5.43a3.16,3.16,0,0,0-3.81,3.08" fill="#50c2e9"/><path d="M246.47,42.35l-3.89-16.83a2.78,2.78,0,0,1-.07-.57l-.06-4.1a2.79,2.79,0,0,1,3.37-2.73l20.72,4.16A2.77,2.77,0,0,1,268.78,25V41.74a2.78,2.78,0,0,1-2.8,2.75H249.21a2.8,2.8,0,0,1-2.74-2.14" fill="#e30a15"/><path d="M176.45,40.47s15-18.25,48.71-19v-4.1A3.14,3.14,0,0,0,223,14.44L179.73,5.37a3.28,3.28,0,0,0-3.28,2.55Z" fill="#97d5eb"/><g opacity="0.27"><g clip-path="url(#b5dd162a-b1ba-400d-b5b5-eb356a3fe1e6)"><path d="M246,40.47s5.61-13.12,22.74-12.6V24.81a2.7,2.7,0,0,0-2.08-2.49L246,18.17a2.91,2.91,0,0,0-3.59,2.35v4.42Z" fill="#fff"/></g></g></g></g></svg>