<svg xmlns="http://www.w3.org/2000/svg" viewBox="0 0 503.24 213.43"><title>logo-gfk</title><g id="b2fb80cf-96e9-4b3d-942b-c1635288b622" data-name="Layer 2"><g id="e3a51e15-9532-47ce-afae-3c6304134194" data-name="Ebene 1"><path d="M277,58.47a24.17,24.17,0,0,0,2.66-.14,17.28,17.28,0,0,0,2.29-.41,18.39,18.39,0,0,0,2-.66c.64-.26,1.27-.56,1.9-.89v-7.9h-5.55a1,1,0,0,1-.76-.28.9.9,0,0,1-.29-.67V44.77h11V58.52a20.2,20.2,0,0,1-2.81,1.7,18.83,18.83,0,0,1-3.13,1.21,22,22,0,0,1-3.56.73,35,35,0,0,1-4.12.23,18.62,18.62,0,0,1-7.15-1.33,16.61,16.61,0,0,1-5.6-3.75,16.92,16.92,0,0,1-3.66-5.79A20.25,20.25,0,0,1,259,44.09a20.77,20.77,0,0,1,1.29-7.47,16.11,16.11,0,0,1,9.45-9.53,20.77,20.77,0,0,1,7.59-1.32,23.35,23.35,0,0,1,3.95.31,19.1,19.1,0,0,1,3.39.9,15.46,15.46,0,0,1,2.88,1.43A16.85,16.85,0,0,1,290,30.29l-1.38,2.2a1.27,1.27,0,0,1-1.1.68,1.7,1.7,0,0,1-.87-.28c-.42-.23-.89-.51-1.4-.85a12.72,12.72,0,0,0-1.89-1,15.45,15.45,0,0,0-2.62-.79,17.84,17.84,0,0,0-3.59-.32,14.53,14.53,0,0,0-5.48,1,11.54,11.54,0,0,0-4.17,2.82,12.46,12.46,0,0,0-2.65,4.45,17.4,17.4,0,0,0-.93,5.86,17.86,17.86,0,0,0,1,6.07,13,13,0,0,0,2.72,4.51,11.68,11.68,0,0,0,4.15,2.82A13.93,13.93,0,0,0,277,58.47Z" fill="#3a4044"/><path d="M297.31,62V36.67h2.55a1.41,1.41,0,0,1,1,.27,1.76,1.76,0,0,1,.38,1l.3,4a11.57,11.57,0,0,1,3.21-4.13,7.55,7.55,0,0,1,6.39-1.25,6.07,6.07,0,0,1,1.57.66l-.57,3.32a.76.76,0,0,1-.78.63,3.83,3.83,0,0,1-1.07-.24,6.77,6.77,0,0,0-2-.24,5.76,5.76,0,0,0-3.89,1.35,10.15,10.15,0,0,0-2.61,3.93V62Z" fill="#3a4044"/><path d="M327.91,36.27a13.11,13.11,0,0,1,5,.92,10.45,10.45,0,0,1,3.8,2.63,11.32,11.32,0,0,1,2.4,4.11,17.75,17.75,0,0,1,0,10.79,11.45,11.45,0,0,1-2.4,4.1,10.41,10.41,0,0,1-3.8,2.61,14.25,14.25,0,0,1-10,0,10.62,10.62,0,0,1-3.81-2.61,11.81,11.81,0,0,1-2.43-4.1,17.55,17.55,0,0,1,0-10.79,11.67,11.67,0,0,1,2.43-4.11,10.66,10.66,0,0,1,3.81-2.63A13.11,13.11,0,0,1,327.91,36.27Zm0,22.6a6.51,6.51,0,0,0,5.6-2.51,11.69,11.69,0,0,0,1.85-7,11.79,11.79,0,0,0-1.85-7.05,6.49,6.49,0,0,0-5.6-2.52,7.68,7.68,0,0,0-3.3.65,6.27,6.27,0,0,0-2.34,1.87,8.44,8.44,0,0,0-1.4,3,17.88,17.88,0,0,0,0,8.06,8.37,8.37,0,0,0,1.4,3,6.45,6.45,0,0,0,2.34,1.86A7.83,7.83,0,0,0,327.91,58.87Z" fill="#3a4044"/><path d="M342.36,36.67h3.5a1.42,1.42,0,0,1,.9.27,1.49,1.49,0,0,1,.48.65l4.85,16.3c.13.6.26,1.18.37,1.74s.22,1.12.3,1.69c.14-.57.29-1.13.45-1.69s.34-1.14.53-1.74l5.35-16.4a1.29,1.29,0,0,1,.43-.62,1.22,1.22,0,0,1,.79-.25h1.93a1.27,1.27,0,0,1,.82.25,1.21,1.21,0,0,1,.45.62l5.23,16.4c.18.59.34,1.16.48,1.73s.28,1.12.42,1.67c.08-.55.19-1.12.32-1.72s.28-1.16.43-1.68l4.95-16.3a1.33,1.33,0,0,1,.47-.66,1.39,1.39,0,0,1,.83-.26H380L371.79,62h-3.53c-.43,0-.73-.28-.9-.85L361.76,44a10,10,0,0,1-.32-1.16c-.09-.4-.17-.78-.25-1.17-.09.39-.17.78-.25,1.18a9.21,9.21,0,0,1-.33,1.17l-5.67,17.15a1,1,0,0,1-1,.85h-3.35Z" fill="#3a4044"/><path d="M391.89,62.39a6.15,6.15,0,0,1-4.62-1.67,6.72,6.72,0,0,1-1.61-4.83V40.39h-3.05a1,1,0,0,1-.67-.23.92.92,0,0,1-.28-.74V37.64l4.15-.52,1-7.83a.94.94,0,0,1,.32-.61,1,1,0,0,1,.7-.24h2.25v8.73h7.25v3.22h-7.25v15.2a3.23,3.23,0,0,0,.78,2.38,2.71,2.71,0,0,0,2,.77,3.67,3.67,0,0,0,1.21-.18,5.71,5.71,0,0,0,.89-.42,7,7,0,0,0,.63-.41.9.9,0,0,1,.47-.19.75.75,0,0,1,.62.43l1.3,2.12a8.31,8.31,0,0,1-2.77,1.69A9.41,9.41,0,0,1,391.89,62.39Z" fill="#3a4044"/><path d="M403.11,62V25.17h4.45v14.9a13.51,13.51,0,0,1,3.6-2.76,9.54,9.54,0,0,1,4.55-1,9.12,9.12,0,0,1,3.66.69A6.91,6.91,0,0,1,422,38.91a8.63,8.63,0,0,1,1.62,3,13.47,13.47,0,0,1,.55,3.93V62h-4.46V45.87a6.76,6.76,0,0,0-1.31-4.46,4.89,4.89,0,0,0-4-1.59,7.41,7.41,0,0,0-3.69,1,12.19,12.19,0,0,0-3.16,2.57V62Z" fill="#3a4044"/><path d="M261.36,124.09V102.57l-2.8-.33a2.07,2.07,0,0,1-.86-.39.89.89,0,0,1-.34-.76V99.27h4V96.82A11.56,11.56,0,0,1,262,93a8.06,8.06,0,0,1,1.75-2.85,7.55,7.55,0,0,1,2.74-1.76,10.22,10.22,0,0,1,3.6-.6,9.63,9.63,0,0,1,3.15.5l-.1,2.23a.57.57,0,0,1-.42.6,5.33,5.33,0,0,1-1.13.1h-.77a6.81,6.81,0,0,0-2.09.3,3.89,3.89,0,0,0-1.61,1,4.37,4.37,0,0,0-1,1.78,8.83,8.83,0,0,0-.36,2.72v2.33H273v3.22h-7.17v21.6Z" fill="#3a4044"/><path d="M277.46,124.09V98.77H280a1.41,1.41,0,0,1,1,.27,1.68,1.68,0,0,1,.38.95l.3,4a11.61,11.61,0,0,1,3.21-4.14,7.09,7.09,0,0,1,4.49-1.48,7.44,7.44,0,0,1,1.9.23,6.46,6.46,0,0,1,1.57.67l-.57,3.32a.76.76,0,0,1-.78.63,3.83,3.83,0,0,1-1.07-.24,6.77,6.77,0,0,0-2-.24,5.76,5.76,0,0,0-3.89,1.35,10.15,10.15,0,0,0-2.61,3.93v16.12Z" fill="#3a4044"/><path d="M308.06,98.37a12.93,12.93,0,0,1,5,.92,10.45,10.45,0,0,1,3.8,2.63,11.32,11.32,0,0,1,2.4,4.11,17.75,17.75,0,0,1,0,10.79,11.45,11.45,0,0,1-2.4,4.1,10.41,10.41,0,0,1-3.8,2.61,14.25,14.25,0,0,1-10,0,10.62,10.62,0,0,1-3.81-2.61,11.81,11.81,0,0,1-2.43-4.1,17.55,17.55,0,0,1,0-10.79,11.67,11.67,0,0,1,2.43-4.11,10.66,10.66,0,0,1,3.81-2.63A12.93,12.93,0,0,1,308.06,98.37Zm0,22.6a6.49,6.49,0,0,0,5.6-2.52,11.64,11.64,0,0,0,1.85-7,11.77,11.77,0,0,0-1.85-7,6.49,6.49,0,0,0-5.6-2.52,7.71,7.71,0,0,0-3.3.65,6.27,6.27,0,0,0-2.34,1.87,8.47,8.47,0,0,0-1.4,3,17.93,17.93,0,0,0,0,8.07,8.24,8.24,0,0,0,1.4,3,6.37,6.37,0,0,0,2.34,1.87A7.87,7.87,0,0,0,308.06,121Z" fill="#3a4044"/><path d="M325.81,124.09V98.77h2.65a1.13,1.13,0,0,1,1.2.92l.33,2.6a12.82,12.82,0,0,1,3.14-2.82,7.29,7.29,0,0,1,4-1.1,6,6,0,0,1,4.17,1.42,8,8,0,0,1,2.28,3.85,7.68,7.68,0,0,1,1.39-2.37,7.77,7.77,0,0,1,1.94-1.65,7.93,7.93,0,0,1,2.29-1,10.1,10.1,0,0,1,2.46-.3,9.46,9.46,0,0,1,3.56.63,7.14,7.14,0,0,1,2.65,1.87,8.26,8.26,0,0,1,1.66,3,13.11,13.11,0,0,1,.58,4.09v16.12h-4.45V108a6.88,6.88,0,0,0-1.3-4.52,4.69,4.69,0,0,0-3.78-1.53,5.87,5.87,0,0,0-2.09.38,5.11,5.11,0,0,0-1.73,1.14,5.31,5.31,0,0,0-1.19,1.89,7.38,7.38,0,0,0-.44,2.64v16.12h-4.45V108a7.12,7.12,0,0,0-1.22-4.55,4.36,4.36,0,0,0-3.58-1.5,5.64,5.64,0,0,0-3.06.88,10.3,10.3,0,0,0-2.59,2.42v18.87Z" fill="#3a4044"/><path d="M266.39,166.11h1.82a3.87,3.87,0,0,0,1.51-.24,3,3,0,0,0,1.07-.81l11.92-13.5a3.76,3.76,0,0,1,1.07-.89,2.91,2.91,0,0,1,1.31-.26h4.12l-13.65,15.42a12.89,12.89,0,0,1-1,1,4.45,4.45,0,0,1-1,.65,3.54,3.54,0,0,1,1.22.67,10,10,0,0,1,1.1,1.13l14.25,17H286a3.72,3.72,0,0,1-.8-.07,2.62,2.62,0,0,1-.56-.2,1.69,1.69,0,0,1-.44-.33l-.4-.42L271.39,171l-.51-.51a2.47,2.47,0,0,0-1.28-.57,7,7,0,0,0-1-.07h-2.2v16.4h-4.83V150.41h4.83Z" fill="#3a4044"/><path d="M294.66,186.23V160.91h2.65a1.13,1.13,0,0,1,1.2.92l.35,2.75a14.36,14.36,0,0,1,3.69-3,9.59,9.59,0,0,1,4.71-1.12,9.05,9.05,0,0,1,3.66.69,7.16,7.16,0,0,1,2.66,2,8.78,8.78,0,0,1,1.61,3,13.52,13.52,0,0,1,.55,3.93v16.12h-4.45V170.11a6.76,6.76,0,0,0-1.32-4.46,4.89,4.89,0,0,0-4-1.59,7.4,7.4,0,0,0-3.68.95,12.07,12.07,0,0,0-3.17,2.57v18.65Z" fill="#3a4044"/><path d="M332.91,160.51a13.2,13.2,0,0,1,5,.92,10.63,10.63,0,0,1,3.8,2.63,11.62,11.62,0,0,1,2.4,4.11,17.95,17.95,0,0,1,0,10.79,11.66,11.66,0,0,1-2.4,4.1,10.58,10.58,0,0,1-3.8,2.61,14.27,14.27,0,0,1-10,0,10.62,10.62,0,0,1-3.81-2.61,11.72,11.72,0,0,1-2.43-4.1,17.55,17.55,0,0,1,0-10.79,11.67,11.67,0,0,1,2.43-4.11,10.66,10.66,0,0,1,3.81-2.63A13.11,13.11,0,0,1,332.91,160.51Zm0,22.6a6.51,6.51,0,0,0,5.6-2.51,14.3,14.3,0,0,0,0-14.07,6.49,6.49,0,0,0-5.6-2.52,7.71,7.71,0,0,0-3.3.65,6.16,6.16,0,0,0-2.33,1.87,8.11,8.11,0,0,0-1.4,3,17.51,17.51,0,0,0,0,8.06,8,8,0,0,0,1.4,3,6.23,6.23,0,0,0,2.33,1.86A7.87,7.87,0,0,0,332.91,183.11Z" fill="#3a4044"/><path d="M347.41,160.91h3.5a1.38,1.38,0,0,1,1.38.92l4.85,16.3c.13.6.26,1.18.37,1.74s.22,1.12.3,1.69c.14-.57.29-1.13.45-1.69s.34-1.14.53-1.74l5.35-16.4a1.34,1.34,0,0,1,.43-.62,1.22,1.22,0,0,1,.79-.25h1.93a1.27,1.27,0,0,1,.82.25,1.25,1.25,0,0,1,.45.62l5.23,16.4c.18.59.34,1.16.49,1.73s.27,1.12.41,1.67c.08-.55.19-1.12.32-1.72s.28-1.16.43-1.68l4.95-16.3a1.33,1.33,0,0,1,.47-.66,1.39,1.39,0,0,1,.83-.26H385l-8.2,25.32h-3.53c-.43,0-.73-.28-.9-.85l-5.6-17.17a9.5,9.5,0,0,1-.32-1.16c-.09-.39-.17-.78-.25-1.17-.09.39-.17.78-.25,1.18a9.21,9.21,0,0,1-.33,1.17L360,185.38a1,1,0,0,1-1,.85h-3.35Z" fill="#3a4044"/><path d="M394.21,149.41v36.82h-4.45V149.41Z" fill="#3a4044"/><path d="M412.29,160.51a11.32,11.32,0,0,1,4.2.76,9.41,9.41,0,0,1,3.32,2.2A10,10,0,0,1,422,167a13.82,13.82,0,0,1,.79,4.81,2.88,2.88,0,0,1-.23,1.4.92.92,0,0,1-.85.35H404.86a14.22,14.22,0,0,0,.65,4.18,8.54,8.54,0,0,0,1.65,3,6.6,6.6,0,0,0,2.5,1.78,8.63,8.63,0,0,0,3.25.58,9.83,9.83,0,0,0,2.89-.38,14.16,14.16,0,0,0,2.09-.84,15.65,15.65,0,0,0,1.46-.84,1.93,1.93,0,0,1,1-.39,1,1,0,0,1,.85.43l1.25,1.62a8.46,8.46,0,0,1-2,1.74,12,12,0,0,1-2.47,1.21,15.22,15.22,0,0,1-2.71.72,17.45,17.45,0,0,1-2.77.23,12.9,12.9,0,0,1-4.84-.88,10.76,10.76,0,0,1-3.83-2.6,12,12,0,0,1-2.51-4.24,17.23,17.23,0,0,1-.9-5.8,14.77,14.77,0,0,1,.81-4.95,11.84,11.84,0,0,1,2.34-4,10.82,10.82,0,0,1,3.73-2.65A12.21,12.21,0,0,1,412.29,160.51Zm.1,3.27a6.85,6.85,0,0,0-5.08,1.87,8.77,8.77,0,0,0-2.3,5.16h13.78a8.86,8.86,0,0,0-.43-2.84,6.19,6.19,0,0,0-1.25-2.22,5.52,5.52,0,0,0-2-1.45A6.65,6.65,0,0,0,412.39,163.78Z" fill="#3a4044"/><path d="M446.54,186.23a1.12,1.12,0,0,1-1.2-.92l-.4-3.08a13.59,13.59,0,0,1-3.72,3.17,9.49,9.49,0,0,1-4.78,1.18,9.25,9.25,0,0,1-3.95-.83,8.1,8.1,0,0,1-3-2.47,11.73,11.73,0,0,1-1.92-4.05,20.77,20.77,0,0,1-.68-5.57,17.4,17.4,0,0,1,.75-5.21,12.69,12.69,0,0,1,2.16-4.19,9.91,9.91,0,0,1,8-3.8,9.14,9.14,0,0,1,4,.79,9.48,9.48,0,0,1,2.95,2.21V149.41h4.45v36.82ZM437.91,183a7.13,7.13,0,0,0,3.81-1,10.91,10.91,0,0,0,3-2.82V166.91a7.08,7.08,0,0,0-2.69-2.31,7.67,7.67,0,0,0-3.24-.67,6.42,6.42,0,0,0-5.45,2.53q-1.91,2.52-1.9,7.2a18,18,0,0,0,.43,4.24,8.15,8.15,0,0,0,1.25,2.9,5,5,0,0,0,2,1.66A6.81,6.81,0,0,0,437.91,183Z" fill="#3a4044"/><path d="M465.44,160.48a12.15,12.15,0,0,1,3.08.37,9.47,9.47,0,0,1,2.61,1.06H478v1.65q0,.83-1.05,1.05l-2.87.4a8.19,8.19,0,0,1,.13,7,7.56,7.56,0,0,1-2,2.58,8.72,8.72,0,0,1-3,1.65,11.89,11.89,0,0,1-3.81.58,12.5,12.5,0,0,1-3.35-.43,4.32,4.32,0,0,0-1.22,1.12,2,2,0,0,0-.41,1.16,1.57,1.57,0,0,0,.73,1.41,5,5,0,0,0,1.92.68,16,16,0,0,0,2.73.21H469a16.89,16.89,0,0,1,3.11.28,9.33,9.33,0,0,1,2.73.91,5,5,0,0,1,1.92,1.74,5.27,5.27,0,0,1,.73,2.89,6.79,6.79,0,0,1-.82,3.19,8.59,8.59,0,0,1-2.33,2.74,12,12,0,0,1-3.73,1.93,16,16,0,0,1-5,.72,19.5,19.5,0,0,1-4.87-.55,11.41,11.41,0,0,1-3.46-1.48,6.42,6.42,0,0,1-2.06-2.14,5.05,5.05,0,0,1-.69-2.54,4.61,4.61,0,0,1,1.19-3.19,8.13,8.13,0,0,1,3.26-2.09,4.43,4.43,0,0,1-1.71-1.33,3.88,3.88,0,0,1-.44-3.37,4.32,4.32,0,0,1,.61-1.16,6.73,6.73,0,0,1,2.42-2,8,8,0,0,1-2.94-2.78,7.65,7.65,0,0,1-1.07-4.07,7.73,7.73,0,0,1,.72-3.36,7.28,7.28,0,0,1,2-2.57,9,9,0,0,1,3-1.64A12.27,12.27,0,0,1,465.44,160.48Zm7.9,27a2.25,2.25,0,0,0-.53-1.56,3.34,3.34,0,0,0-1.42-.9,10.31,10.31,0,0,0-2.08-.47,17.78,17.78,0,0,0-2.47-.16h-2.65a9.92,9.92,0,0,1-2.58-.33,7.28,7.28,0,0,0-2.31,1.65,3.36,3.36,0,0,0-.89,2.33,3.1,3.1,0,0,0,.44,1.59,3.79,3.79,0,0,0,1.33,1.27,8,8,0,0,0,2.27.86,15.05,15.05,0,0,0,3.21.31,14.24,14.24,0,0,0,3.22-.33,7.89,7.89,0,0,0,2.42-.95,4.48,4.48,0,0,0,1.51-1.45A3.44,3.44,0,0,0,473.34,187.52Zm-7.9-13.66a7,7,0,0,0,2.38-.38,4.88,4.88,0,0,0,1.74-1,4.17,4.17,0,0,0,1.05-1.61,5.9,5.9,0,0,0,.35-2.06,4.94,4.94,0,0,0-1.41-3.7,6.78,6.78,0,0,0-8.2,0,4.94,4.94,0,0,0-1.41,3.7,5.68,5.68,0,0,0,.36,2.06,4.31,4.31,0,0,0,1.06,1.61,4.88,4.88,0,0,0,1.72,1A6.87,6.87,0,0,0,465.44,173.86Z" fill="#3a4044"/><path d="M492.73,160.51a11.25,11.25,0,0,1,4.2.76,9.36,9.36,0,0,1,3.33,2.2,10.16,10.16,0,0,1,2.19,3.55,13.82,13.82,0,0,1,.79,4.81,2.88,2.88,0,0,1-.23,1.4.92.92,0,0,1-.85.35H485.31a13.89,13.89,0,0,0,.65,4.18,8.54,8.54,0,0,0,1.65,3,6.6,6.6,0,0,0,2.5,1.78,8.63,8.63,0,0,0,3.25.58,9.83,9.83,0,0,0,2.89-.38,14.16,14.16,0,0,0,2.09-.84,15.65,15.65,0,0,0,1.46-.84,1.93,1.93,0,0,1,1-.39,1,1,0,0,1,.85.43l1.25,1.62a8.46,8.46,0,0,1-2,1.74,12,12,0,0,1-2.47,1.21,15.44,15.44,0,0,1-2.71.72,17.45,17.45,0,0,1-2.77.23,12.9,12.9,0,0,1-4.84-.88,10.76,10.76,0,0,1-3.83-2.6,12,12,0,0,1-2.51-4.24,17.23,17.23,0,0,1-.9-5.8,14.77,14.77,0,0,1,.81-4.95,11.68,11.68,0,0,1,2.34-4,10.82,10.82,0,0,1,3.73-2.65A12.2,12.2,0,0,1,492.73,160.51Zm.11,3.27a6.85,6.85,0,0,0-5.08,1.87,8.77,8.77,0,0,0-2.3,5.16h13.78a9.14,9.14,0,0,0-.43-2.84,6.19,6.19,0,0,0-1.25-2.22,5.52,5.52,0,0,0-2-1.45A6.65,6.65,0,0,0,492.84,163.78Z" fill="#3a4044"/><polygon points="213.41 0 152.3 61.11 152.27 61.13 192.19 0 0 0 0 213.43 213.43 213.43 213.43 0 213.41 0" fill="#ea5906"/><path d="M164.29,103.36l30.37-33.52c1.1-1.25,1.88-2.2,1.88-3.14,0-1.89-4.09-3.8-6.76-3.8-1.89,0-3.46,1.44-4.88,3l-33.21,36.82c-1.56,1.74-1.88,2.68-1.88,3.63s.32,1.88,1.88,3.61L184.9,146.8c1.42,1.57,3,3,4.88,3,2.67,0,6.76-1.9,6.76-3.79,0-.94-.78-1.89-1.88-3.14l-30.37-33.53c-1.42-1.57-2.21-2.36-2.21-3s.79-1.42,2.21-3m-30.06,43c0,1.88,1.57,2.82,5.36,2.82s5.34-.94,5.34-2.82v-80c0-1.89-1.58-2.83-5.34-2.83s-5.36.94-5.36,2.83Zm-48,0c0,1.88,1.57,2.82,5.35,2.82s5.34-.94,5.34-2.82V92.66c0-14,5.51-19.82,20.78-19.82h2.83c2.21,0,3-1.89,3-4.89,0-3.61-2-4.4-8-4.4-17,0-29.26,7.55-29.26,28.17Z" fill="#fff"/><path d="M74.43,140.6V109.93c0-1.91-1.57-2.87-5.34-2.87s-5.36,1-5.36,2.87v25.58c0,4-1.73,5.56-9.75,5.56-16.21,0-26.28-12.39-26.28-33.53,0-22.1,12.42-34.65,33.67-34.65h6.14c2.2,0,3-1.91,3-4.92,0-3.66-2-4.46-8-4.46H60c-24.71,0-43.75,13.67-43.75,44.19,0,29.24,16.68,42.28,37.61,42.28,16.68,0,20.61-4.62,20.61-9.38" fill="#fff"/><path d="M106.71,100.87a5.86,5.86,0,1,1-5.86,5.86,5.85,5.85,0,0,1,5.86-5.86" fill="#fff"/><path d="M164.29,103.36l30.37-33.52c1.1-1.25,1.88-2.2,1.88-3.14,0-1.89-4.09-3.8-6.76-3.8-1.89,0-3.46,1.44-4.88,3l-33.21,36.82c-1.56,1.74-1.88,2.68-1.88,3.63s.32,1.88,1.88,3.61L184.9,146.8c1.42,1.57,3,3,4.88,3,2.67,0,6.76-1.9,6.76-3.79,0-.94-.78-1.89-1.88-3.14l-30.37-33.53c-1.42-1.57-2.21-2.36-2.21-3s.79-1.42,2.21-3m-30.06,43c0,1.88,1.57,2.82,5.36,2.82s5.34-.94,5.34-2.82v-80c0-1.89-1.58-2.83-5.34-2.83s-5.36.94-5.36,2.83Zm-48,0c0,1.88,1.57,2.82,5.35,2.82s5.34-.94,5.34-2.82V92.66c0-14,5.51-19.82,20.78-19.82h2.83c2.21,0,3-1.89,3-4.89,0-3.61-2-4.4-8-4.4-17,0-29.26,7.55-29.26,28.17Z" fill="#fff"/><path d="M74.43,140.6V109.93c0-1.91-1.57-2.87-5.34-2.87s-5.36,1-5.36,2.87v25.58c0,4-1.73,5.56-9.75,5.56-16.21,0-26.28-12.39-26.28-33.53,0-22.1,12.42-34.65,33.67-34.65h6.14c2.2,0,3-1.91,3-4.92,0-3.66-2-4.46-8-4.46H60c-24.71,0-43.75,13.67-43.75,44.19,0,29.24,16.68,42.28,37.61,42.28,16.68,0,20.61-4.62,20.61-9.38" fill="#fff"/><path d="M106.71,100.87a5.86,5.86,0,1,1-5.86,5.86,5.85,5.85,0,0,1,5.86-5.86" fill="#fff"/><polyline points="152.28 61.13 152.31 61.11 213.43 0 192.2 0 152.28 61.13" fill="#fff"/></g></g></svg>