<svg xmlns="http://www.w3.org/2000/svg" xmlns:xlink="http://www.w3.org/1999/xlink" viewBox="0 0 194.43 94.3"><defs><clipPath id="bebf122d-a8a3-4b0a-bfcc-ab87ae06883e"><rect x="160.38" y="19.62" width="25.76" height="22.5" fill="none"/></clipPath></defs><title>logo-chile3d-block</title><g id="fa8859c2-5cbc-493b-91c0-c6bfaf4ebf1c" data-name="Layer 2"><g id="a0da3553-6555-4fed-b032-fb287cdbc084" data-name="Ebene 1"><path d="M133.69,82h7.08a6.2,6.2,0,0,0,1.47,4.54,6,6,0,0,0,4.44,1.58A5.68,5.68,0,0,0,151,86.6a5.18,5.18,0,0,0,1.58-4.12,5,5,0,0,0-1.8-4.12c-1.12-.91-2.92-1.37-5.38-1.37h-.53a1.73,1.73,0,0,0-.52.11V72h.73A7.69,7.69,0,0,0,150,70.76a5.1,5.1,0,0,0,.21-7.17,4.86,4.86,0,0,0-3.59-1.16,4.71,4.71,0,0,0-3.8,1.37,5.59,5.59,0,0,0-1.37,4.11v.22h-3.8c-1.48,0-2.36-.41-2.64-1.22a4.54,4.54,0,0,1-.1-2.59,9.37,9.37,0,0,1,2.85-4.74q3.38-3.06,9.18-3.07,5.6,0,8.86,2.75a8.78,8.78,0,0,1,3.38,7.18A7.55,7.55,0,0,1,158,70.66a8.57,8.57,0,0,1-3.38,3A11.43,11.43,0,0,1,158.92,77a8.76,8.76,0,0,1,1.48,5.17,10.93,10.93,0,0,1-3.69,8.76q-3.6,3.08-10,3.07T137,90.92q-3.28-2.94-3.28-8.86Z" fill="#706f6f"/><path d="M33,80.9a14,14,0,0,1-4.75,9.92Q24,94.3,16.89,94.3q-8.23,0-12.56-5Q0,84.6,0,75.3q0-9.49,4.43-14.25,4.55-4.95,13.09-5,7,0,11.08,3.49c2.61,2.25,4.08,5.42,4.44,9.5H28.5a3.67,3.67,0,0,1-3.59-2.22,10.61,10.61,0,0,0-1.79-2.43,9.16,9.16,0,0,0-5.6-1.58A9.18,9.18,0,0,0,10,66c-1.69,2.12-2.54,5.21-2.54,9.29s.85,7,2.54,9.08,4,3.27,7.28,3.27A8.92,8.92,0,0,0,22.9,86a8.8,8.8,0,0,0,2.85-5.06Z" fill="#3c3c3b"/><path d="M36,93.46V61a3.79,3.79,0,0,1,3.8-3.8h3.7V70.66h15V57.15h7.6V93.46h-7.6V77.31h-15V93.46Z" fill="#3c3c3b"/><path d="M69.11,93.46V61a3.79,3.79,0,0,1,3.8-3.8h3.7V93.46Z" fill="#3c3c3b"/><path d="M104.24,93.46V61a3.63,3.63,0,0,1,1.1-2.69,3.68,3.68,0,0,1,2.7-1.11h22.58c0,4-1.8,6.19-5.88,6.23H111.62v7.81h14.15v2.42a3.77,3.77,0,0,1-3.8,3.8H111.62V86.7h19c0,4-1.31,6.76-5.75,6.76Z" fill="#3c3c3b"/><path d="M101.24,86.7H87.1V57.15H83.41a3.77,3.77,0,0,0-3.8,3.8V93.46h21.63Z" fill="#3c3c3b"/><path d="M190.31,61.58q-4.11-4.42-12.45-4.43H163.61c.08,4.19,2.36,6.43,7.28,6.33h7q4.65,0,6.75,2.85t2.22,9q0,6.33-2.32,8.87-2.43,2.74-7.6,2.74h-6V75.12c0-4.77-2.6-6.91-7.28-6.92V93.46h12.24a29.79,29.79,0,0,0,7.71-.74A14,14,0,0,0,193,84.06a24.46,24.46,0,0,0,1.48-8.76q0-9.08-4.12-13.72" fill="#706f6f"/><path d="M151.9,26.38s2.75.33,3.93,6.81c1,5.42,2.74,15.41,2.74,15.41s.3,2.39,5.58,2l-1.51-8.9s-2.89-9.7-2.89-10.1-2.35-6.76-2.84-6.76-5,1.49-5,1.49" fill="#575857"/><path d="M90.4,50.64C76,51,77.87,43.7,74.1,34.33a14,14,0,0,0-10.78-9.09,9.79,9.79,0,0,0-3.24,0l-32.41,5c-11.6,2.27-15.42,10.9-15.86,17-.21,3-1.11,3.49-2.48,3.49,0,0-.88,0-1.93,0-1.48-.09-1.75-1.7-1.76-1.93-.84-12.44,9-24.9,20.93-28L90.22,0Z" fill="#3c3c3b"/><path d="M90.22,0l96,20.5a3.08,3.08,0,0,1,2.43,3L189,47.54a3.07,3.07,0,0,1-3.07,3.11H164.15a3.07,3.07,0,0,1-3-2.49l-3.42-17.58c0-.06,0-.12-.05-.18-.46-1.83-.94-3.41-3-3.69l-2.75-.33c-1.84-.16-3.08,1.13-3.75,3.77L144.39,48.2a3.07,3.07,0,0,1-3,2.45h-51s0-1.37,0-3.06L90.23,3.81c0-2,0-3.81,0-3.81" fill="#1d1e1b"/><path d="M95.8,10V42.12a3.13,3.13,0,0,0,3.09,3.16h37.34a3.1,3.1,0,0,0,3-2.4l4.16-17.17a3.48,3.48,0,0,0,.09-.79l-.06-6A3.16,3.16,0,0,0,141,15.84l-41.43-9A3.12,3.12,0,0,0,95.8,10" fill="#50c2e9"/><path d="M164.31,44,160.5,27.08a2.76,2.76,0,0,1-.06-.57l-.06-4.12a2.76,2.76,0,0,1,3.29-2.75l20.27,4.18a2.77,2.77,0,0,1,2.2,2.71V43.39a2.76,2.76,0,0,1-2.75,2.77H167A2.77,2.77,0,0,1,164.31,44" fill="#e30a15"/><path d="M95.8,42.12S110.45,23.76,143.46,23V18.9A3.15,3.15,0,0,0,141.33,16L99,6.82A3.21,3.21,0,0,0,95.8,9.38Z" fill="#97d5eb"/><g opacity="0.27"><g clip-path="url(#bebf122d-a8a3-4b0a-bfcc-ab87ae06883e)"><path d="M163.89,42.12s5.49-13.2,22.25-12.67V26.37a2.73,2.73,0,0,0-2-2.51l-20.21-4.17a2.84,2.84,0,0,0-3.51,2.36V26.5Z" fill="#fff"/></g></g></g></g></svg>