<svg xmlns="http://www.w3.org/2000/svg" width="34.77" height="33.73" viewBox="0 0 34.77 33.73">
  <path id="Path_1021" data-name="Path 1021" d="M24.5,18.375a13.467,13.467,0,0,0,.8,1.285,2.429,2.429,0,0,1,.4,1.445l-.964.161L24.9,25.12a1.2,1.2,0,0,0-1.164.321,4.779,4.779,0,0,0-.923,1.2,17.234,17.234,0,0,1,4.657-.482,10.408,10.408,0,0,1,4.176.964q-.161.8-.281,1.445a2.524,2.524,0,0,1-.763,1.285l-.8-.562-2.57,2.891a1.361,1.361,0,0,0-1.566-.6,9.566,9.566,0,0,0-2.289.763,15.708,15.708,0,0,1,4.055,4.135,12.46,12.46,0,0,1,2.128,5.1,6.131,6.131,0,0,0-1.486.442,2.442,2.442,0,0,1-1.486.12l.08-1.044-3.774-.562a1.32,1.32,0,0,0-.12-1.365,6.167,6.167,0,0,0-1.245-1.285,16.454,16.454,0,0,0-1.726-1.2,11.314,11.314,0,0,1-1.566-1.124,19.591,19.591,0,0,0-.8,2.007,11.213,11.213,0,0,1-1.044,2.168A2.174,2.174,0,0,0,15.1,41.019q-.321.883-.562,1.686a2.8,2.8,0,0,1-.763,1.285,2.075,2.075,0,0,1-1.807.241,1.113,1.113,0,0,1-.12,1.124,8.226,8.226,0,0,1-.763.883,4.547,4.547,0,0,1-1.726-1.686,2.487,2.487,0,0,1,.04-2.409q.4-.8.763-1.566t.763-1.566q.241-.642.522-1.325t.522-1.325l-.482.161q-.241.08-.562.161a2.468,2.468,0,0,0-1.807.04q-.843.361-1.606.763a3.18,3.18,0,0,1-1.486.4q-.723,0-1.445-1.124a.881.881,0,0,1-.8.723q-.642.08-1.2.161a5.614,5.614,0,0,1-.08-2.489,2.278,2.278,0,0,1,1.767-1.686q.883-.321,1.646-.562a14.731,14.731,0,0,0,1.646-.642,22.637,22.637,0,0,0,2.208-.923q1.084-.522,2.289-1a8.239,8.239,0,0,1-1.686-1.285,2.448,2.448,0,0,0-1-1.486q-.763-.522-1.486-.923A3.026,3.026,0,0,1,6.753,25.6a1.949,1.949,0,0,1,.161-1.847.956.956,0,0,1-1.044-.321q-.4-.482-.723-.883a5.375,5.375,0,0,1,2.007-1.405,2.354,2.354,0,0,1,2.409.6q.642.562,1.325,1.084t1.405,1q1.044.723,2.128,1.445t2.208,1.606a16.473,16.473,0,0,1,3.212-5.139A12.3,12.3,0,0,1,24.5,18.375Z" transform="translate(-6.466 -10.785) rotate(-13)"/>
</svg>
